<?xml version="1.0" encoding="UTF-8" standalone="no"?>
<svg
   width="42.000015"
   height="42.000015"
   viewBox="0 0 42.000015 42.000015"
   version="1.1"
   xml:space="preserve"
   style="clip-rule:evenodd;fill-rule:evenodd;stroke-linejoin:round;stroke-miterlimit:1.41421"
   id="svg23"
   sodipodi:docname="logo.svg"
   inkscape:version="1.2.2 (b0a8486, 2022-12-01)"
   xmlns:inkscape="http://www.inkscape.org/namespaces/inkscape"
   xmlns:sodipodi="http://sodipodi.sourceforge.net/DTD/sodipodi-0.dtd"
   xmlns="http://www.w3.org/2000/svg"
   xmlns:svg="http://www.w3.org/2000/svg"><defs
   id="defs27" /><sodipodi:namedview
   id="namedview25"
   pagecolor="#ffffff"
   bordercolor="#666666"
   borderopacity="1.0"
   inkscape:showpageshadow="2"
   inkscape:pageopacity="0.0"
   inkscape:pagecheckerboard="0"
   inkscape:deskcolor="#d1d1d1"
   showgrid="false"
   inkscape:zoom="7.1609195"
   inkscape:cx="94.750401"
   inkscape:cy="1.3266453"
   inkscape:window-width="2048"
   inkscape:window-height="1099"
   inkscape:window-x="0"
   inkscape:window-y="204"
   inkscape:window-maximized="1"
   inkscape:current-layer="g8" />
    <g
   id="g8"
   transform="matrix(0.714286,0,0,0.714286,-0.4285716,-0.4285716)">
        <path
   id="path4"
   d="M 30,0.6 C 13.763,0.6 0.6,13.763 0.6,30 0.6,46.237 13.763,59.4 30,59.4 46.237,59.4 59.4,46.237 59.4,30 59.4,13.763 46.237,0.6 30,0.6 Z m 0,44.1 C 18.634,44.7 9.42,35.487 9.42,24.12 9.42,12.753 18.634,3.54 30,3.54 c 11.366,0 20.58,9.214 20.58,20.58 0,11.366 -9.214,20.58 -20.58,20.58 z"
   style="fill-rule:nonzero" />
        <g
   id="circle6"
   transform="translate(-2.85648,7.02341)">
            <circle
   cx="30"
   cy="19.691999"
   r="13.247"
   style="fill:#e64a19"
   id="circle3" />
        </g>
        
    </g>
</svg>
