<?xml version="1.0" encoding="UTF-8" standalone="no"?>
<svg
   xmlns:dc="http://purl.org/dc/elements/1.1/"
   xmlns:cc="http://creativecommons.org/ns#"
   xmlns:rdf="http://www.w3.org/1999/02/22-rdf-syntax-ns#"
   xmlns:svg="http://www.w3.org/2000/svg"
   xmlns="http://www.w3.org/2000/svg"
   xmlns:sodipodi="http://sodipodi.sourceforge.net/DTD/sodipodi-0.dtd"
   xmlns:inkscape="http://www.inkscape.org/namespaces/inkscape"
   version="1.1"
   height="42"
   width="173.88"
   viewBox="0 0 289.80001 70"
   sodipodi:docname="logo.svg"
   class="react-rx-logo"
   inkscape:version="0.92.2 5c3e80d, 2017-08-06">
  <sodipodi:namedview
     pagecolor="#ffffff"
     bordercolor="#666666"
     borderopacity="1"
     objecttolerance="10"
     gridtolerance="10"
     guidetolerance="10"
     inkscape:pageopacity="0"
     inkscape:pageshadow="2"
     inkscape:window-width="1606"
     inkscape:window-height="885"
     id="namedview12"
     showgrid="false"
     fit-margin-top="0"
     fit-margin-left="0"
     fit-margin-right="0"
     fit-margin-bottom="0"
     inkscape:zoom="1.1172414"
     inkscape:cx="145"
     inkscape:cy="6.9999997"
     inkscape:window-x="0"
     inkscape:window-y="0"
     inkscape:window-maximized="0"
     inkscape:current-layer="svg14" />
  <metadata
     id="metadata18">
    <rdf:RDF>
      <cc:Work
         rdf:about="">
        <dc:format>image/svg+xml</dc:format>
        <dc:type
           rdf:resource="http://purl.org/dc/dcmitype/StillImage" />
        <dc:title></dc:title>
      </cc:Work>
    </rdf:RDF>
  </metadata>
  <defs
     id="SvgjsDefs1298" />
  <g
     style="fill:currentColor"
     transform="matrix(0.71428571,0,0,0.71428571,-0.71428571,-0.71428571)"
     featurekey="symbol1"
     id="SvgjsG1300">
    <g
       id="g8">
      <path
         id="path4"
         d="M 50,1 C 22.938,1 1,22.938 1,50 1,77.062 22.938,99 50,99 77.062,99 99,77.062 99,50 99,22.938 77.062,1 50,1 Z m 0,73.5 C 31.057,74.5 15.7,59.145 15.7,40.2 15.7,21.255 31.057,5.9 50,5.9 68.943,5.9 84.3,21.256 84.3,40.2 84.3,59.144 68.943,74.5 50,74.5 Z"
         inkscape:connector-curvature="0" />
      <circle
         id="circle6"
         r="22.079"
         cy="32.82"
         cx="50"
         style="fill:rgb(230, 74, 25)" />
    </g>
  </g>
  <g
     style="fill:currentColor"
     transform="matrix(1.67001,0,0,1.67001,87.995989,4.2584768)"
     featurekey="text1"
     id="SvgjsG1301">
    <path
       id="path11"
       d="M 7.2,15.88 C 7.08,16.08 6.9,16.14 6.7,16.08 6.4,15.98 6.04,15.92 5.66,15.92 H 5.4 c -1.04,0 -1.74,0.5 -1.98,0.9 v 6.88 c 0,0.2 -0.1,0.3 -0.3,0.3 H 1.5 C 1.3,24 1.2,23.9 1.2,23.7 V 14.3 C 1.2,14.1 1.3,14 1.5,14 h 1.62 c 0.2,0 0.3,0.1 0.3,0.3 v 0.96 c 0.56,-0.88 1.56,-1.34 2.8,-1.34 0.6,0 1.06,0.1 1.46,0.28 0.2,0.12 0.26,0.3 0.14,0.54 z m 6.56,-1.96 c 1.88,0 3.38,1.38 3.38,3.64 v 1.72 c 0,0.38 -0.2,0.6 -0.6,0.6 h -5.06 v 0.88 c 0,0.92 0.52,1.34 1.3,1.34 h 0.98 c 1.12,0 1.38,-0.22 1.8,-0.7 0.12,-0.14 0.24,-0.14 0.44,0 l 0.82,0.54 c 0.2,0.14 0.22,0.28 0.1,0.44 -0.72,0.88 -1.38,1.72 -3.16,1.72 h -0.98 c -2.2,0 -3.58,-1.64 -3.58,-3.76 v -2.78 c 0,-2.16 1.38,-3.64 3.58,-3.64 z m 1.16,4.22 v -0.88 c 0,-0.96 -0.46,-1.34 -1.16,-1.34 h -0.98 c -0.78,0 -1.3,0.38 -1.3,1.36 v 0.86 z m 12.16,5.68 C 27.1,23.9 27.12,24 27.02,24 h -1.84 c -0.22,0 -0.36,-0.2 -0.36,-0.48 v -0.68 c -0.46,0.7 -1.12,1.26 -2.14,1.26 h -0.62 c -1.86,0 -3.22,-1.12 -3.22,-3.12 0,-2 1.1,-2.9 3.18,-2.9 h 2.8 v -0.82 c 0,-1.06 -0.38,-1.34 -1.42,-1.34 h -0.54 c -1.02,0 -1.78,0.26 -2.2,0.44 -0.32,0.12 -0.54,0.12 -0.66,-0.16 l -0.42,-0.98 c -0.08,-0.2 -0.1,-0.36 0.1,-0.48 0.84,-0.52 2.08,-0.82 3.18,-0.82 h 0.54 c 2.48,0 3.64,1.1 3.64,3.44 v 6.16 c 0,0.1 0.02,0.22 0.04,0.3 z M 23.12,22.1 c 1.08,0 1.46,-0.44 1.7,-0.96 v -1.32 h -2.76 c -0.6,0 -1.02,0.26 -1.02,1.14 0,0.84 0.42,1.14 1.02,1.14 z m 12.06,-4.68 c -0.24,0 -0.38,-0.14 -0.4,-0.38 -0.1,-0.82 -0.5,-1.1 -1.12,-1.1 h -0.98 c -0.78,0 -1.3,0.38 -1.3,1.34 v 3.48 c 0,0.92 0.52,1.34 1.3,1.34 h 0.98 c 0.92,0 1.2,-0.3 1.6,-0.82 0.14,-0.16 0.34,-0.14 0.54,0 l 0.96,0.68 c 0.18,0.14 0.18,0.26 0.06,0.42 -0.72,0.88 -1.34,1.72 -3.16,1.72 h -0.98 c -2.2,0 -3.58,-1.64 -3.58,-3.76 v -2.78 c 0,-2.14 1.38,-3.62 3.58,-3.62 h 0.98 c 1.84,0 3.16,1.2 3.36,3.06 0.02,0.28 -0.12,0.42 -0.38,0.42 z M 43.48,16 h -1.42 v 4.98 c 0,0.78 0.34,1.02 1.3,1.06 0.26,0.02 0.4,0.18 0.38,0.42 l -0.06,1.2 c -0.02,0.24 -0.18,0.38 -0.48,0.38 -2.68,0 -3.38,-1 -3.38,-3.08 V 16 h -0.98 c -0.2,0 -0.3,-0.1 -0.3,-0.3 v -1.38 c 0,-0.22 0.1,-0.32 0.3,-0.32 h 0.98 v -1.28 c 0,-0.2 0.1,-0.3 0.3,-0.3 h 1.64 c 0.2,0 0.3,0.1 0.3,0.3 V 14 h 1.4 c 0.22,0 0.32,0.1 0.32,0.3 v 1.4 c 0,0.2 -0.16,0.3 -0.3,0.3 z m 2.6,3.94 c -0.2,0 -0.3,-0.1 -0.3,-0.3 v -1.4 c 0,-0.2 0.1,-0.3 0.3,-0.3 h 5.28 c 0.18,0 0.3,0.1 0.3,0.3 v 1.4 c 0,0.2 -0.12,0.3 -0.3,0.3 z m 13.98,-4.06 c -0.12,0.2 -0.3,0.26 -0.5,0.2 -0.3,-0.1 -0.66,-0.16 -1.04,-0.16 h -0.26 c -1.04,0 -1.74,0.5 -1.98,0.9 v 6.88 c 0,0.2 -0.1,0.3 -0.3,0.3 h -1.62 c -0.2,0 -0.3,-0.1 -0.3,-0.3 v -9.4 c 0,-0.2 0.1,-0.3 0.3,-0.3 h 1.62 c 0.2,0 0.3,0.1 0.3,0.3 v 0.96 c 0.56,-0.88 1.56,-1.34 2.8,-1.34 0.6,0 1.06,0.1 1.46,0.28 0.2,0.12 0.26,0.3 0.14,0.54 z m 9.76,7.74 C 69.94,23.82 69.86,24 69.6,24 h -1.82 c -0.16,0 -0.3,-0.06 -0.46,-0.36 l -1.4,-2.62 -1.4,2.62 C 64.36,23.94 64.22,24 64.06,24 H 62.24 C 62,24 61.92,23.82 62.04,23.62 l 2.64,-4.6 -2.66,-4.64 C 61.9,14.18 61.98,14 62.22,14 h 1.84 c 0.16,0 0.3,0.06 0.46,0.36 l 1.4,2.62 1.42,-2.62 C 67.5,14.06 67.64,14 67.8,14 h 1.82 c 0.24,0 0.3,0.18 0.18,0.38 L 67.2,19 Z m 2.36,-3.68 c -0.2,0 -0.3,-0.1 -0.3,-0.3 v -1.4 c 0,-0.2 0.1,-0.3 0.3,-0.3 h 5.28 c 0.18,0 0.3,0.1 0.3,0.3 v 1.4 c 0,0.2 -0.12,0.3 -0.3,0.3 z m 11.4,-2 c 2.68,0.26 3.98,0.86 3.98,3.18 0,2.08 -1.3,2.98 -3.56,2.98 h -0.7 c -2.14,0 -3.32,-0.9 -3.52,-2.6 -0.02,-0.18 0.1,-0.3 0.3,-0.3 h 1.46 c 0.3,0 0.42,0.06 0.48,0.22 0.22,0.44 0.46,0.7 1.22,0.7 h 0.86 c 0.86,0 1.24,-0.34 1.24,-1 0,-0.86 -0.2,-1.08 -1.76,-1.22 -2.78,-0.22 -3.74,-1 -3.74,-3.06 0,-2.04 1.34,-2.9 3.4,-2.9 h 0.7 c 2.02,0 3.44,1.06 3.44,2.84 0,0.2 -0.06,0.32 -0.28,0.32 h -1.44 c -0.24,0 -0.42,-0.08 -0.52,-0.36 -0.18,-0.46 -0.42,-0.82 -1.24,-0.82 h -0.66 c -0.76,0 -1.18,0.32 -1.18,0.88 0,0.58 0.16,0.98 1.52,1.14 z M 94,16 h -1.42 v 4.98 c 0,0.78 0.34,1.02 1.3,1.06 0.26,0.02 0.4,0.18 0.38,0.42 l -0.06,1.2 c -0.02,0.24 -0.18,0.38 -0.48,0.38 -2.68,0 -3.38,-1 -3.38,-3.08 V 16 h -0.98 c -0.2,0 -0.3,-0.1 -0.3,-0.3 v -1.38 c 0,-0.22 0.1,-0.32 0.3,-0.32 h 0.98 v -1.28 c 0,-0.2 0.1,-0.3 0.3,-0.3 h 1.64 c 0.2,0 0.3,0.1 0.3,0.3 V 14 h 1.4 c 0.22,0 0.32,0.1 0.32,0.3 v 1.4 c 0,0.2 -0.16,0.3 -0.3,0.3 z m 10.14,7.82 c 0.02,0.08 0.04,0.18 -0.06,0.18 h -1.84 c -0.22,0 -0.36,-0.2 -0.36,-0.48 v -0.68 c -0.46,0.7 -1.12,1.26 -2.14,1.26 h -0.62 c -1.86,0 -3.22,-1.12 -3.22,-3.12 0,-2 1.1,-2.9 3.18,-2.9 h 2.8 v -0.82 c 0,-1.06 -0.38,-1.34 -1.42,-1.34 h -0.54 c -1.02,0 -1.78,0.26 -2.2,0.44 -0.32,0.12 -0.54,0.12 -0.66,-0.16 l -0.42,-0.98 c -0.08,-0.2 -0.1,-0.36 0.1,-0.48 0.84,-0.52 2.08,-0.82 3.18,-0.82 h 0.54 c 2.48,0 3.64,1.1 3.64,3.44 v 6.16 c 0,0.1 0.02,0.22 0.04,0.3 z m -3.96,-1.72 c 1.08,0 1.46,-0.44 1.7,-0.96 v -1.32 h -2.76 c -0.6,0 -1.02,0.26 -1.02,1.14 0,0.84 0.42,1.14 1.02,1.14 z M 110.9,16 h -1.42 v 4.98 c 0,0.78 0.34,1.02 1.3,1.06 0.26,0.02 0.4,0.18 0.38,0.42 l -0.06,1.2 c -0.02,0.24 -0.18,0.38 -0.48,0.38 -2.68,0 -3.38,-1 -3.38,-3.08 V 16 h -0.98 c -0.2,0 -0.3,-0.1 -0.3,-0.3 v -1.38 c 0,-0.22 0.1,-0.32 0.3,-0.32 h 0.98 v -1.28 c 0,-0.2 0.1,-0.3 0.3,-0.3 h 1.64 c 0.2,0 0.3,0.1 0.3,0.3 V 14 h 1.4 c 0.22,0 0.32,0.1 0.32,0.3 v 1.4 c 0,0.2 -0.16,0.3 -0.3,0.3 z m 6.56,-2.08 c 1.88,0 3.38,1.38 3.38,3.64 v 1.72 c 0,0.38 -0.2,0.6 -0.6,0.6 h -5.06 v 0.88 c 0,0.92 0.52,1.34 1.3,1.34 h 0.98 c 1.12,0 1.38,-0.22 1.8,-0.7 0.12,-0.14 0.24,-0.14 0.44,0 l 0.82,0.54 c 0.2,0.14 0.22,0.28 0.1,0.44 -0.72,0.88 -1.38,1.72 -3.16,1.72 h -0.98 c -2.2,0 -3.58,-1.64 -3.58,-3.76 v -2.78 c 0,-2.16 1.38,-3.64 3.58,-3.64 z m 1.16,4.22 v -0.88 c 0,-0.96 -0.46,-1.34 -1.16,-1.34 h -0.98 c -0.78,0 -1.3,0.38 -1.3,1.36 v 0.86 z"
       inkscape:connector-curvature="0" />
  </g>
</svg>
