<?xml version="1.0" encoding="UTF-8" standalone="no"?>
<!DOCTYPE svg PUBLIC "-//W3C//DTD SVG 1.1//EN" "http://www.w3.org/Graphics/SVG/1.1/DTD/svg11.dtd">
<svg width="100%" height="100%" viewBox="0 0 174 42" version="1.1" xmlns="http://www.w3.org/2000/svg" xmlns:xlink="http://www.w3.org/1999/xlink" xml:space="preserve" xmlns:serif="http://www.serif.com/" style="fill-rule:evenodd;clip-rule:evenodd;stroke-linejoin:round;stroke-miterlimit:1.41421;">
    <g id="g8" transform="matrix(0.714286,0,0,0.714286,-0.428571,-0.428571)">
        <path id="path4" d="M30,0.6C13.763,0.6 0.6,13.763 0.6,30C0.6,46.237 13.763,59.4 30,59.4C46.237,59.4 59.4,46.237 59.4,30C59.4,13.763 46.237,0.6 30,0.6ZM30,44.7C18.634,44.7 9.42,35.487 9.42,24.12C9.42,12.753 18.634,3.54 30,3.54C41.366,3.54 50.58,12.754 50.58,24.12C50.58,35.486 41.366,44.7 30,44.7Z" style="fill-rule:nonzero;"/>
        <g id="circle6" transform="matrix(1,0,0,1,-2.85648,7.02341)">
            <circle cx="30" cy="19.692" r="13.247" style="fill:rgb(230,74,25);"/>
        </g>
        <g transform="matrix(4.40145,0,0,4.40145,-189.621,-21.1626)">
            <path d="M61.819,9.654C61.851,9.518 61.917,9.372 62.017,9.216C62.117,9.06 62.219,8.946 62.323,8.874C62.947,8.97 63.367,9.326 63.583,9.942C63.903,9.23 64.419,8.874 65.131,8.874C65.315,8.874 65.547,8.902 65.827,8.958C65.827,9.478 65.707,9.942 65.467,10.35C65.347,10.318 65.167,10.294 64.927,10.278C64.439,10.278 64.047,10.538 63.751,11.058L63.751,14.91C63.527,14.95 63.283,14.97 63.019,14.97C62.755,14.97 62.503,14.95 62.263,14.91L62.263,10.89C62.263,10.306 62.115,9.894 61.819,9.654Z" style="fill-rule:nonzero;"/>
            <path d="M71.215,12.414L67.855,12.414C67.879,12.886 67.985,13.252 68.173,13.512C68.361,13.772 68.691,13.902 69.163,13.902C69.635,13.902 70.159,13.762 70.735,13.482C70.959,13.698 71.103,14.002 71.167,14.394C70.527,14.85 69.757,15.078 68.857,15.078C67.957,15.078 67.311,14.786 66.919,14.202C66.527,13.618 66.331,12.862 66.331,11.934C66.331,11.006 66.547,10.25 66.979,9.666C67.411,9.082 68.029,8.79 68.833,8.79C69.637,8.79 70.255,9.032 70.687,9.516C71.119,10 71.335,10.61 71.335,11.346C71.335,11.714 71.295,12.07 71.215,12.414ZM68.899,9.87C68.243,9.87 67.891,10.366 67.843,11.358L69.931,11.358L69.931,11.214C69.931,10.814 69.847,10.49 69.679,10.242C69.511,9.994 69.251,9.87 68.899,9.87Z" style="fill-rule:nonzero;"/>
            <path d="M72.163,14.478C72.171,14.318 72.219,14.136 72.307,13.932C72.395,13.728 72.499,13.57 72.619,13.458C73.259,13.802 73.819,13.974 74.299,13.974C74.587,13.974 74.813,13.918 74.977,13.806C75.141,13.694 75.223,13.546 75.223,13.362C75.223,13.05 74.999,12.81 74.551,12.642L73.879,12.39C72.871,12.014 72.367,11.434 72.367,10.65C72.367,10.09 72.571,9.64 72.979,9.3C73.387,8.96 73.929,8.79 74.605,8.79C75.281,8.79 75.955,8.946 76.627,9.258C76.635,9.442 76.597,9.638 76.513,9.846C76.429,10.054 76.323,10.21 76.195,10.314C75.603,10.042 75.063,9.906 74.575,9.906C74.351,9.906 74.173,9.958 74.041,10.062C73.909,10.166 73.843,10.306 73.843,10.482C73.843,10.738 74.055,10.942 74.479,11.094L75.211,11.37C76.243,11.754 76.759,12.37 76.759,13.218C76.759,13.786 76.545,14.238 76.117,14.574C75.689,14.91 75.097,15.078 74.341,15.078C73.585,15.078 72.859,14.878 72.163,14.478Z" style="fill-rule:nonzero;"/>
            <path d="M81.127,8.946C81.167,9.106 81.187,9.288 81.187,9.492C81.187,9.696 81.167,9.874 81.127,10.026L79.663,10.002L79.663,13.266C79.663,13.626 79.835,13.806 80.179,13.806L80.947,13.806C81.027,14.046 81.067,14.258 81.067,14.442C81.067,14.626 81.055,14.766 81.031,14.862C80.527,14.934 80.051,14.97 79.603,14.97C78.675,14.97 78.211,14.502 78.211,13.566L78.211,10.014L77.311,10.026C77.271,9.874 77.251,9.696 77.251,9.492C77.251,9.288 77.271,9.106 77.311,8.946L78.211,8.97L78.211,8.058C78.211,7.722 78.271,7.484 78.391,7.344C78.511,7.204 78.719,7.134 79.015,7.134L79.591,7.134L79.663,7.218L79.663,8.97L81.127,8.946Z" style="fill-rule:nonzero;"/>
            <path d="M87.091,14.238C87.051,14.374 86.981,14.516 86.881,14.664C86.781,14.812 86.679,14.926 86.575,15.006C86.079,14.95 85.715,14.718 85.483,14.31C84.955,14.822 84.383,15.078 83.767,15.078C83.151,15.078 82.687,14.898 82.375,14.538C82.063,14.178 81.907,13.762 81.907,13.29C81.907,12.618 82.125,12.112 82.561,11.772C82.997,11.432 83.555,11.262 84.235,11.262C84.603,11.262 84.951,11.278 85.279,11.31L85.279,10.95C85.279,10.318 84.975,10.002 84.367,10.002C83.935,10.002 83.323,10.146 82.531,10.434C82.299,10.186 82.167,9.83 82.135,9.366C82.999,9.006 83.863,8.826 84.727,8.826C85.327,8.826 85.815,8.994 86.191,9.33C86.567,9.666 86.755,10.174 86.755,10.854L86.755,13.302C86.755,13.742 86.867,14.054 87.091,14.238ZM84.079,13.938C84.495,13.938 84.895,13.746 85.279,13.362L85.279,12.294C84.999,12.262 84.695,12.246 84.367,12.246C84.039,12.246 83.791,12.33 83.623,12.498C83.455,12.666 83.371,12.878 83.371,13.134C83.371,13.39 83.435,13.588 83.563,13.728C83.691,13.868 83.863,13.938 84.079,13.938Z" style="fill-rule:nonzero;"/>
            <path d="M91.435,8.946C91.475,9.106 91.495,9.288 91.495,9.492C91.495,9.696 91.475,9.874 91.435,10.026L89.971,10.002L89.971,13.266C89.971,13.626 90.143,13.806 90.487,13.806L91.255,13.806C91.335,14.046 91.375,14.258 91.375,14.442C91.375,14.626 91.363,14.766 91.339,14.862C90.835,14.934 90.359,14.97 89.911,14.97C88.983,14.97 88.519,14.502 88.519,13.566L88.519,10.014L87.619,10.026C87.579,9.874 87.559,9.696 87.559,9.492C87.559,9.288 87.579,9.106 87.619,8.946L88.519,8.97L88.519,8.058C88.519,7.722 88.579,7.484 88.699,7.344C88.819,7.204 89.027,7.134 89.323,7.134L89.899,7.134L89.971,7.218L89.971,8.97L91.435,8.946Z" style="fill-rule:nonzero;"/>
            <path d="M97.111,12.414L93.751,12.414C93.775,12.886 93.881,13.252 94.069,13.512C94.257,13.772 94.587,13.902 95.059,13.902C95.531,13.902 96.055,13.762 96.631,13.482C96.855,13.698 96.999,14.002 97.063,14.394C96.423,14.85 95.653,15.078 94.753,15.078C93.853,15.078 93.207,14.786 92.815,14.202C92.423,13.618 92.227,12.862 92.227,11.934C92.227,11.006 92.443,10.25 92.875,9.666C93.307,9.082 93.925,8.79 94.729,8.79C95.533,8.79 96.151,9.032 96.583,9.516C97.015,10 97.231,10.61 97.231,11.346C97.231,11.714 97.191,12.07 97.111,12.414ZM94.795,9.87C94.139,9.87 93.787,10.366 93.739,11.358L95.827,11.358L95.827,11.214C95.827,10.814 95.743,10.49 95.575,10.242C95.407,9.994 95.147,9.87 94.795,9.87Z" style="fill-rule:nonzero;"/>
        </g>
    </g>
</svg>
